<svg width="880" height="456" viewBox="0 0 880 456"
     xmlns="http://www.w3.org/2000/svg">

  <rect width="100%" height="100%" fill="#0b0f1a" rx="14"/>

  <!-- ══ PIE PANELS ══════════════════════════════════════════ -->

  <text x="30" y="26" font-size="13" font-weight="700"
        fill="#e5e7eb" font-family="monospace">Code size</text>
  <text x="30" y="42" font-size="10" fill="#6b7280"
        font-family="monospace">bytes across all repos  ·  public + private</text>

  <text x="468" y="26" font-size="13" font-weight="700"
        fill="#e5e7eb" font-family="monospace">Activity</text>
  <text x="468" y="42" font-size="10" fill="#6b7280"
        font-family="monospace">commits distributed by byte share per repo</text>

  <!-- vertical panel divider -->
  <line x1="439" y1="14" x2="439" y2="298"
        stroke="#1f2937" stroke-width="1"/>

  <!-- left legend + pie -->
  <rect x="30" y="61" width="10" height="10" fill="#f97316" rx="2"/>
<text x="45" y="71" font-size="11" fill="#e5e7eb" font-family="monospace">Python</text>
<text x="220" y="71" font-size="11" fill="#6b7280" font-family="monospace" text-anchor="end">43%</text>
<rect x="30" y="82" width="10" height="10" fill="#eab308" rx="2"/>
<text x="45" y="92" font-size="11" fill="#e5e7eb" font-family="monospace">C</text>
<text x="220" y="92" font-size="11" fill="#6b7280" font-family="monospace" text-anchor="end">35%</text>
<rect x="30" y="103" width="10" height="10" fill="#22c55e" rx="2"/>
<text x="45" y="113" font-size="11" fill="#e5e7eb" font-family="monospace">C++</text>
<text x="220" y="113" font-size="11" fill="#6b7280" font-family="monospace" text-anchor="end">13%</text>
<rect x="30" y="124" width="10" height="10" fill="#fb7185" rx="2"/>
<text x="45" y="134" font-size="11" fill="#e5e7eb" font-family="monospace">Rust</text>
<text x="220" y="134" font-size="11" fill="#6b7280" font-family="monospace" text-anchor="end">6%</text>
<rect x="30" y="145" width="10" height="10" fill="#a78bfa" rx="2"/>
<text x="45" y="155" font-size="11" fill="#e5e7eb" font-family="monospace">Shell</text>
<text x="220" y="155" font-size="11" fill="#6b7280" font-family="monospace" text-anchor="end">1%</text>
<rect x="30" y="166" width="10" height="10" fill="#f43f5e" rx="2"/>
<text x="45" y="176" font-size="11" fill="#e5e7eb" font-family="monospace">Assembly</text>
<text x="220" y="176" font-size="11" fill="#6b7280" font-family="monospace" text-anchor="end">0%</text>
<rect x="30" y="187" width="10" height="10" fill="#84cc16" rx="2"/>
<text x="45" y="197" font-size="11" fill="#e5e7eb" font-family="monospace">Java</text>
<text x="220" y="197" font-size="11" fill="#6b7280" font-family="monospace" text-anchor="end">0%</text>
<rect x="30" y="208" width="10" height="10" fill="#fbbf24" rx="2"/>
<text x="45" y="218" font-size="11" fill="#e5e7eb" font-family="monospace">CMake</text>
<text x="220" y="218" font-size="11" fill="#6b7280" font-family="monospace" text-anchor="end">0%</text>
<rect x="30" y="229" width="10" height="10" fill="#34d399" rx="2"/>
<text x="45" y="239" font-size="11" fill="#e5e7eb" font-family="monospace">JavaScript</text>
<text x="220" y="239" font-size="11" fill="#6b7280" font-family="monospace" text-anchor="end">0%</text>
<rect x="30" y="250" width="10" height="10" fill="#c084fc" rx="2"/>
<text x="45" y="260" font-size="11" fill="#e5e7eb" font-family="monospace">GLSL</text>
<text x="220" y="260" font-size="11" fill="#6b7280" font-family="monospace" text-anchor="end">0%</text>

  <path d="M318.00,88.00 A92,92 0 0 1 359.19,262.27 L343.97,231.86 A58,58 0 0 0 318.00,122.00 Z" fill="#f97316"/><path d="M359.19,262.27 A92,92 0 0 1 227.51,163.38 L260.95,169.52 A58,58 0 0 0 343.97,231.86 Z" fill="#eab308"/><path d="M227.51,163.38 A92,92 0 0 1 269.79,101.64 L287.61,130.60 A58,58 0 0 0 260.95,169.52 Z" fill="#22c55e"/><path d="M269.79,101.64 A92,92 0 0 1 304.39,89.01 L309.42,122.64 A58,58 0 0 0 287.61,130.60 Z" fill="#fb7185"/><path d="M304.39,89.01 A92,92 0 0 1 310.82,88.28 L313.47,122.18 A58,58 0 0 0 309.42,122.64 Z" fill="#a78bfa"/><path d="M310.82,88.28 A92,92 0 0 1 313.15,88.13 L314.94,122.08 A58,58 0 0 0 313.47,122.18 Z" fill="#f43f5e"/><path d="M313.15,88.13 A92,92 0 0 1 315.35,88.04 L316.33,122.02 A58,58 0 0 0 314.94,122.08 Z" fill="#84cc16"/><path d="M315.35,88.04 A92,92 0 0 1 316.83,88.01 L317.26,122.00 A58,58 0 0 0 316.33,122.02 Z" fill="#fbbf24"/><path d="M316.83,88.01 A92,92 0 0 1 317.70,88.00 L317.81,122.00 A58,58 0 0 0 317.26,122.00 Z" fill="#34d399"/><path d="M317.70,88.00 A92,92 0 0 1 318.00,88.00 L318.00,122.00 A58,58 0 0 0 317.81,122.00 Z" fill="#c084fc"/>

  <!-- right legend + pie -->
  <rect x="468" y="61" width="10" height="10" fill="#06b6d4" rx="2"/>
<text x="483" y="71" font-size="11" fill="#e5e7eb" font-family="monospace">Python</text>
<text x="658" y="71" font-size="11" fill="#6b7280" font-family="monospace" text-anchor="end">28%</text>
<rect x="468" y="82" width="10" height="10" fill="#6366f1" rx="2"/>
<text x="483" y="92" font-size="11" fill="#e5e7eb" font-family="monospace">C++</text>
<text x="658" y="92" font-size="11" fill="#6b7280" font-family="monospace" text-anchor="end">26%</text>
<rect x="468" y="103" width="10" height="10" fill="#00c2a8" rx="2"/>
<text x="483" y="113" font-size="11" fill="#e5e7eb" font-family="monospace">Rust</text>
<text x="658" y="113" font-size="11" fill="#6b7280" font-family="monospace" text-anchor="end">21%</text>
<rect x="468" y="124" width="10" height="10" fill="#ff6b6b" rx="2"/>
<text x="483" y="134" font-size="11" fill="#e5e7eb" font-family="monospace">C</text>
<text x="658" y="134" font-size="11" fill="#6b7280" font-family="monospace" text-anchor="end">13%</text>
<rect x="468" y="145" width="10" height="10" fill="#ffd166" rx="2"/>
<text x="483" y="155" font-size="11" fill="#e5e7eb" font-family="monospace">Assembly</text>
<text x="658" y="155" font-size="11" fill="#6b7280" font-family="monospace" text-anchor="end">7%</text>
<rect x="468" y="166" width="10" height="10" fill="#38bdf8" rx="2"/>
<text x="483" y="176" font-size="11" fill="#e5e7eb" font-family="monospace">Shell</text>
<text x="658" y="176" font-size="11" fill="#6b7280" font-family="monospace" text-anchor="end">6%</text>
<rect x="468" y="187" width="10" height="10" fill="#818cf8" rx="2"/>
<text x="483" y="197" font-size="11" fill="#e5e7eb" font-family="monospace">Java</text>
<text x="658" y="197" font-size="11" fill="#6b7280" font-family="monospace" text-anchor="end">1%</text>
<rect x="468" y="208" width="10" height="10" fill="#2dd4bf" rx="2"/>
<text x="483" y="218" font-size="11" fill="#e5e7eb" font-family="monospace">VHDL</text>
<text x="658" y="218" font-size="11" fill="#6b7280" font-family="monospace" text-anchor="end">0%</text>
<rect x="468" y="229" width="10" height="10" fill="#fb923c" rx="2"/>
<text x="483" y="239" font-size="11" fill="#e5e7eb" font-family="monospace">Verilog</text>
<text x="658" y="239" font-size="11" fill="#6b7280" font-family="monospace" text-anchor="end">0%</text>
<rect x="468" y="250" width="10" height="10" fill="#e879f9" rx="2"/>
<text x="483" y="260" font-size="11" fill="#e5e7eb" font-family="monospace">CMake</text>
<text x="658" y="260" font-size="11" fill="#6b7280" font-family="monospace" text-anchor="end">0%</text>

  <path d="M756.00,88.00 A92,92 0 0 1 846.80,194.82 L813.24,189.34 A58,58 0 0 0 756.00,122.00 Z" fill="#06b6d4"/><path d="M846.80,194.82 A92,92 0 0 1 737.67,270.16 L744.44,236.84 A58,58 0 0 0 813.24,189.34 Z" fill="#6366f1"/><path d="M737.67,270.16 A92,92 0 0 1 664.21,186.27 L698.14,183.96 A58,58 0 0 0 744.44,236.84 Z" fill="#00c2a8"/><path d="M664.21,186.27 A92,92 0 0 1 687.09,119.05 L712.56,141.57 A58,58 0 0 0 698.14,183.96 Z" fill="#ff6b6b"/><path d="M687.09,119.05 A92,92 0 0 1 717.12,96.62 L731.49,127.43 A58,58 0 0 0 712.56,141.57 Z" fill="#ffd166"/><path d="M717.12,96.62 A92,92 0 0 1 751.04,88.13 L752.88,122.08 A58,58 0 0 0 731.49,127.43 Z" fill="#38bdf8"/><path d="M751.04,88.13 A92,92 0 0 1 754.94,88.01 L755.33,122.00 A58,58 0 0 0 752.88,122.08 Z" fill="#818cf8"/><path d="M754.94,88.01 A92,92 0 0 1 755.51,88.00 L755.69,122.00 A58,58 0 0 0 755.33,122.00 Z" fill="#2dd4bf"/><path d="M755.51,88.00 A92,92 0 0 1 755.98,88.00 L755.99,122.00 A58,58 0 0 0 755.69,122.00 Z" fill="#fb923c"/><path d="M755.98,88.00 A92,92 0 0 1 756.00,88.00 L756.00,122.00 A58,58 0 0 0 755.99,122.00 Z" fill="#e879f9"/>

  <!-- ══ ROSTER SECTION ═══════════════════════════════════════ -->

  <!-- horizontal separator -->
  <line x1="30" y1="312" x2="850" y2="312"
        stroke="#1f2937" stroke-width="1"/>

  <text x="30" y="334" font-size="13" font-weight="700"
        fill="#e5e7eb" font-family="monospace">All languages detected</text>
  <text x="850" y="334" font-size="10" fill="#6b7280"
        font-family="monospace" text-anchor="end"
        >sorted by code size  ·  highlighted = top 10</text>

  <rect x="30" y="351" width="9" height="9" fill="#f97316" rx="1.5"/>
<text x="44" y="360" font-size="11" fill="#e5e7eb" font-family="monospace">Python</text>
<text x="229" y="360" font-size="11" fill="#6b7280" font-family="monospace" text-anchor="end">42.6%</text>
<rect x="235" y="351" width="9" height="9" fill="#eab308" rx="1.5"/>
<text x="249" y="360" font-size="11" fill="#e5e7eb" font-family="monospace">C</text>
<text x="434" y="360" font-size="11" fill="#6b7280" font-family="monospace" text-anchor="end">35.3%</text>
<rect x="440" y="351" width="9" height="9" fill="#22c55e" rx="1.5"/>
<text x="454" y="360" font-size="11" fill="#e5e7eb" font-family="monospace">C++</text>
<text x="639" y="360" font-size="11" fill="#6b7280" font-family="monospace" text-anchor="end">13.3%</text>
<rect x="645" y="351" width="9" height="9" fill="#fb7185" rx="1.5"/>
<text x="659" y="360" font-size="11" fill="#e5e7eb" font-family="monospace">Rust</text>
<text x="844" y="360" font-size="11" fill="#6b7280" font-family="monospace" text-anchor="end">6.4%</text>
<rect x="30" y="373" width="9" height="9" fill="#a78bfa" rx="1.5"/>
<text x="44" y="382" font-size="11" fill="#e5e7eb" font-family="monospace">Shell</text>
<text x="229" y="382" font-size="11" fill="#6b7280" font-family="monospace" text-anchor="end">1.1%</text>
<rect x="235" y="373" width="9" height="9" fill="#f43f5e" rx="1.5"/>
<text x="249" y="382" font-size="11" fill="#e5e7eb" font-family="monospace">Assembly</text>
<text x="434" y="382" font-size="11" fill="#6b7280" font-family="monospace" text-anchor="end">0.4%</text>
<rect x="440" y="373" width="9" height="9" fill="#84cc16" rx="1.5"/>
<text x="454" y="382" font-size="11" fill="#e5e7eb" font-family="monospace">Java</text>
<text x="639" y="382" font-size="11" fill="#6b7280" font-family="monospace" text-anchor="end">0.4%</text>
<rect x="645" y="373" width="9" height="9" fill="#fbbf24" rx="1.5"/>
<text x="659" y="382" font-size="11" fill="#e5e7eb" font-family="monospace">CMake</text>
<text x="844" y="382" font-size="11" fill="#6b7280" font-family="monospace" text-anchor="end">0.3%</text>
<rect x="30" y="395" width="9" height="9" fill="#34d399" rx="1.5"/>
<text x="44" y="404" font-size="11" fill="#e5e7eb" font-family="monospace">JavaScript</text>
<text x="229" y="404" font-size="11" fill="#6b7280" font-family="monospace" text-anchor="end">0.2%</text>
<rect x="235" y="395" width="9" height="9" fill="#c084fc" rx="1.5"/>
<text x="249" y="404" font-size="11" fill="#e5e7eb" font-family="monospace">GLSL</text>
<text x="434" y="404" font-size="11" fill="#6b7280" font-family="monospace" text-anchor="end">0.1%</text>
<rect x="440" y="395" width="9" height="9" fill="#374151" rx="1.5"/>
<text x="454" y="404" font-size="11" fill="#e5e7eb" font-family="monospace">VHDL</text>
<text x="639" y="404" font-size="11" fill="#6b7280" font-family="monospace" text-anchor="end"><0.1%</text>
<rect x="645" y="395" width="9" height="9" fill="#374151" rx="1.5"/>
<text x="659" y="404" font-size="11" fill="#e5e7eb" font-family="monospace">Verilog</text>
<text x="844" y="404" font-size="11" fill="#6b7280" font-family="monospace" text-anchor="end"><0.1%</text>


</svg>