<svg width="880" height="500" viewBox="0 0 880 500"
     xmlns="http://www.w3.org/2000/svg">
  <rect width="100%" height="100%" fill="#0b0f1a" rx="14"/>

  <!-- ══ PIE PANELS ══════════════════════════════════════════ -->
  <text x="30" y="26" font-size="13" font-weight="bold"
        fill="#e5e7eb" font-family="monospace">Code size</text>
  <text x="30" y="42" font-size="10" fill="#6b7280"
        font-family="monospace">bytes across all repos · public + private</text>

  <text x="468" y="26" font-size="13" font-weight="bold"
        fill="#e5e7eb" font-family="monospace">Activity</text>
  <text x="468" y="42" font-size="10" fill="#6b7280"
        font-family="monospace">commits distributed by byte share per repo</text>

  <line x1="439" y1="14" x2="439" y2="298"
        stroke="#1f2937" stroke-width="1"/>

  <rect x="30" y="61" width="10" height="10" fill="#f97316" rx="2"/>
<text x="45" y="71" font-size="11" fill="#e5e7eb" font-family="monospace">Python</text>
<text x="190" y="71" font-size="11" fill="#6b7280" font-family="monospace" text-anchor="end">42%</text>
<rect x="30" y="82" width="10" height="10" fill="#eab308" rx="2"/>
<text x="45" y="92" font-size="11" fill="#e5e7eb" font-family="monospace">C</text>
<text x="190" y="92" font-size="11" fill="#6b7280" font-family="monospace" text-anchor="end">35%</text>
<rect x="30" y="103" width="10" height="10" fill="#22c55e" rx="2"/>
<text x="45" y="113" font-size="11" fill="#e5e7eb" font-family="monospace">C++</text>
<text x="190" y="113" font-size="11" fill="#6b7280" font-family="monospace" text-anchor="end">13%</text>
<rect x="30" y="124" width="10" height="10" fill="#fb7185" rx="2"/>
<text x="45" y="134" font-size="11" fill="#e5e7eb" font-family="monospace">Rust</text>
<text x="190" y="134" font-size="11" fill="#6b7280" font-family="monospace" text-anchor="end">6%</text>
<rect x="30" y="145" width="10" height="10" fill="#a78bfa" rx="2"/>
<text x="45" y="155" font-size="11" fill="#e5e7eb" font-family="monospace">Go</text>
<text x="190" y="155" font-size="11" fill="#6b7280" font-family="monospace" text-anchor="end">1%</text>
<rect x="30" y="166" width="10" height="10" fill="#f43f5e" rx="2"/>
<text x="45" y="176" font-size="11" fill="#e5e7eb" font-family="monospace">Shell</text>
<text x="190" y="176" font-size="11" fill="#6b7280" font-family="monospace" text-anchor="end">1%</text>
<rect x="30" y="187" width="10" height="10" fill="#84cc16" rx="2"/>
<text x="45" y="197" font-size="11" fill="#e5e7eb" font-family="monospace">Assembly</text>
<text x="190" y="197" font-size="11" fill="#6b7280" font-family="monospace" text-anchor="end">0%</text>
<rect x="30" y="208" width="10" height="10" fill="#fbbf24" rx="2"/>
<text x="45" y="218" font-size="11" fill="#e5e7eb" font-family="monospace">Java</text>
<text x="190" y="218" font-size="11" fill="#6b7280" font-family="monospace" text-anchor="end">0%</text>
<rect x="30" y="229" width="10" height="10" fill="#34d399" rx="2"/>
<text x="45" y="239" font-size="11" fill="#e5e7eb" font-family="monospace">Lua</text>
<text x="190" y="239" font-size="11" fill="#6b7280" font-family="monospace" text-anchor="end">0%</text>
<rect x="30" y="250" width="10" height="10" fill="#c084fc" rx="2"/>
<text x="45" y="260" font-size="11" fill="#e5e7eb" font-family="monospace">CMake</text>
<text x="190" y="260" font-size="11" fill="#6b7280" font-family="monospace" text-anchor="end">0%</text>

  <path d="M318.00,88.00 A92,92 0 0 1 363.28,260.08 L346.55,230.49 A58,58 0 0 0 318.00,122.00 Z" fill="#f97316"/><path d="M363.28,260.08 A92,92 0 0 1 226.42,171.22 L260.26,174.47 A58,58 0 0 0 346.55,230.49 Z" fill="#eab308"/><path d="M226.42,171.22 A92,92 0 0 1 262.10,106.93 L282.76,133.93 A58,58 0 0 0 260.26,174.47 Z" fill="#22c55e"/><path d="M262.10,106.93 A92,92 0 0 1 295.68,90.75 L303.93,123.73 A58,58 0 0 0 282.76,133.93 Z" fill="#fb7185"/><path d="M295.68,90.75 A92,92 0 0 1 303.76,89.11 L309.03,122.70 A58,58 0 0 0 303.93,123.73 Z" fill="#a78bfa"/><path d="M303.76,89.11 A92,92 0 0 1 310.57,88.30 L313.32,122.19 A58,58 0 0 0 309.03,122.70 Z" fill="#f43f5e"/><path d="M310.57,88.30 A92,92 0 0 1 312.86,88.14 L314.76,122.09 A58,58 0 0 0 313.32,122.19 Z" fill="#84cc16"/><path d="M312.86,88.14 A92,92 0 0 1 315.02,88.05 L316.12,122.03 A58,58 0 0 0 314.76,122.09 Z" fill="#fbbf24"/><path d="M315.02,88.05 A92,92 0 0 1 316.55,88.01 L317.09,122.01 A58,58 0 0 0 316.12,122.03 Z" fill="#34d399"/><path d="M316.55,88.01 A92,92 0 0 1 318.00,88.00 L318.00,122.00 A58,58 0 0 0 317.09,122.01 Z" fill="#c084fc"/>

  <rect x="468" y="61" width="10" height="10" fill="#06b6d4" rx="2"/>
<text x="483" y="71" font-size="11" fill="#e5e7eb" font-family="monospace">Python</text>
<text x="628" y="71" font-size="11" fill="#6b7280" font-family="monospace" text-anchor="end">26%</text>
<rect x="468" y="82" width="10" height="10" fill="#6366f1" rx="2"/>
<text x="483" y="92" font-size="11" fill="#e5e7eb" font-family="monospace">C++</text>
<text x="628" y="92" font-size="11" fill="#6b7280" font-family="monospace" text-anchor="end">22%</text>
<rect x="468" y="103" width="10" height="10" fill="#00c2a8" rx="2"/>
<text x="483" y="113" font-size="11" fill="#e5e7eb" font-family="monospace">Rust</text>
<text x="628" y="113" font-size="11" fill="#6b7280" font-family="monospace" text-anchor="end">19%</text>
<rect x="468" y="124" width="10" height="10" fill="#ff6b6b" rx="2"/>
<text x="483" y="134" font-size="11" fill="#e5e7eb" font-family="monospace">C</text>
<text x="628" y="134" font-size="11" fill="#6b7280" font-family="monospace" text-anchor="end">11%</text>
<rect x="468" y="145" width="10" height="10" fill="#ffd166" rx="2"/>
<text x="483" y="155" font-size="11" fill="#e5e7eb" font-family="monospace">Go</text>
<text x="628" y="155" font-size="11" fill="#6b7280" font-family="monospace" text-anchor="end">7%</text>
<rect x="468" y="166" width="10" height="10" fill="#38bdf8" rx="2"/>
<text x="483" y="176" font-size="11" fill="#e5e7eb" font-family="monospace">Shell</text>
<text x="628" y="176" font-size="11" fill="#6b7280" font-family="monospace" text-anchor="end">6%</text>
<rect x="468" y="187" width="10" height="10" fill="#818cf8" rx="2"/>
<text x="483" y="197" font-size="11" fill="#e5e7eb" font-family="monospace">Assembly</text>
<text x="628" y="197" font-size="11" fill="#6b7280" font-family="monospace" text-anchor="end">6%</text>
<rect x="468" y="208" width="10" height="10" fill="#2dd4bf" rx="2"/>
<text x="483" y="218" font-size="11" fill="#e5e7eb" font-family="monospace">Lua</text>
<text x="628" y="218" font-size="11" fill="#6b7280" font-family="monospace" text-anchor="end">2%</text>
<rect x="468" y="229" width="10" height="10" fill="#fb923c" rx="2"/>
<text x="483" y="239" font-size="11" fill="#e5e7eb" font-family="monospace">Java</text>
<text x="628" y="239" font-size="11" fill="#6b7280" font-family="monospace" text-anchor="end">1%</text>
<rect x="468" y="250" width="10" height="10" fill="#e879f9" rx="2"/>
<text x="483" y="260" font-size="11" fill="#e5e7eb" font-family="monospace">Svelte</text>
<text x="628" y="260" font-size="11" fill="#6b7280" font-family="monospace" text-anchor="end">1%</text>

  <path d="M756.00,88.00 A92,92 0 0 1 847.82,185.78 L813.89,183.65 A58,58 0 0 0 756.00,122.00 Z" fill="#06b6d4"/><path d="M847.82,185.78 A92,92 0 0 1 766.78,271.37 L762.79,237.60 A58,58 0 0 0 813.89,183.65 Z" fill="#6366f1"/><path d="M766.78,271.37 A92,92 0 0 1 676.09,225.59 L705.62,208.74 A58,58 0 0 0 762.79,237.60 Z" fill="#00c2a8"/><path d="M676.09,225.59 A92,92 0 0 1 665.76,162.08 L699.11,168.70 A58,58 0 0 0 705.62,208.74 Z" fill="#ff6b6b"/><path d="M665.76,162.08 A92,92 0 0 1 681.41,126.14 L708.98,146.05 A58,58 0 0 0 699.11,168.70 Z" fill="#ffd166"/><path d="M681.41,126.14 A92,92 0 0 1 705.16,103.32 L723.95,131.66 A58,58 0 0 0 708.98,146.05 Z" fill="#38bdf8"/><path d="M705.16,103.32 A92,92 0 0 1 734.93,90.44 L742.72,123.54 A58,58 0 0 0 723.95,131.66 Z" fill="#818cf8"/><path d="M734.93,90.44 A92,92 0 0 1 744.67,88.70 L748.86,122.44 A58,58 0 0 0 742.72,123.54 Z" fill="#2dd4bf"/><path d="M744.67,88.70 A92,92 0 0 1 752.54,88.06 L753.82,122.04 A58,58 0 0 0 748.86,122.44 Z" fill="#fb923c"/><path d="M752.54,88.06 A92,92 0 0 1 756.00,88.00 L756.00,122.00 A58,58 0 0 0 753.82,122.04 Z" fill="#e879f9"/>

  <!-- ══ ROSTER SECTION ═══════════════════════════════════════ -->
  <line x1="30" y1="312" x2="850" y2="312"
        stroke="#1f2937" stroke-width="1"/>

  <text x="30" y="334" font-size="13" font-weight="bold"
        fill="#e5e7eb" font-family="monospace">All languages detected</text>
  <text x="850" y="334" font-size="10" fill="#6b7280"
        font-family="monospace" text-anchor="end"
        >sorted by code size · highlighted = top 10</text>

  <rect x="30" y="351" width="9" height="9" fill="#f97316" rx="1.5"/>
<text x="44" y="360" font-size="11" fill="#e5e7eb" font-family="monospace">Python</text>
<text x="229" y="360" font-size="11" fill="#6b7280" font-family="monospace" text-anchor="end">41.6%</text>
<rect x="235" y="351" width="9" height="9" fill="#eab308" rx="1.5"/>
<text x="249" y="360" font-size="11" fill="#e5e7eb" font-family="monospace">C</text>
<text x="434" y="360" font-size="11" fill="#6b7280" font-family="monospace" text-anchor="end">34.6%</text>
<rect x="440" y="351" width="9" height="9" fill="#22c55e" rx="1.5"/>
<text x="454" y="360" font-size="11" fill="#e5e7eb" font-family="monospace">C++</text>
<text x="639" y="360" font-size="11" fill="#6b7280" font-family="monospace" text-anchor="end">13.0%</text>
<rect x="645" y="351" width="9" height="9" fill="#fb7185" rx="1.5"/>
<text x="659" y="360" font-size="11" fill="#e5e7eb" font-family="monospace">Rust</text>
<text x="844" y="360" font-size="11" fill="#6b7280" font-family="monospace" text-anchor="end">6.5%</text>
<rect x="30" y="373" width="9" height="9" fill="#a78bfa" rx="1.5"/>
<text x="44" y="382" font-size="11" fill="#e5e7eb" font-family="monospace">Go</text>
<text x="229" y="382" font-size="11" fill="#6b7280" font-family="monospace" text-anchor="end">1.4%</text>
<rect x="235" y="373" width="9" height="9" fill="#f43f5e" rx="1.5"/>
<text x="249" y="382" font-size="11" fill="#e5e7eb" font-family="monospace">Shell</text>
<text x="434" y="382" font-size="11" fill="#6b7280" font-family="monospace" text-anchor="end">1.2%</text>
<rect x="440" y="373" width="9" height="9" fill="#84cc16" rx="1.5"/>
<text x="454" y="382" font-size="11" fill="#e5e7eb" font-family="monospace">Assembly</text>
<text x="639" y="382" font-size="11" fill="#6b7280" font-family="monospace" text-anchor="end">0.4%</text>
<rect x="645" y="373" width="9" height="9" fill="#fbbf24" rx="1.5"/>
<text x="659" y="382" font-size="11" fill="#e5e7eb" font-family="monospace">Java</text>
<text x="844" y="382" font-size="11" fill="#6b7280" font-family="monospace" text-anchor="end">0.4%</text>
<rect x="30" y="395" width="9" height="9" fill="#34d399" rx="1.5"/>
<text x="44" y="404" font-size="11" fill="#e5e7eb" font-family="monospace">Lua</text>
<text x="229" y="404" font-size="11" fill="#6b7280" font-family="monospace" text-anchor="end">0.3%</text>
<rect x="235" y="395" width="9" height="9" fill="#c084fc" rx="1.5"/>
<text x="249" y="404" font-size="11" fill="#e5e7eb" font-family="monospace">CMake</text>
<text x="434" y="404" font-size="11" fill="#6b7280" font-family="monospace" text-anchor="end">0.2%</text>
<rect x="440" y="395" width="9" height="9" fill="#374151" rx="1.5"/>
<text x="454" y="404" font-size="11" fill="#e5e7eb" font-family="monospace">JavaScript</text>
<text x="639" y="404" font-size="11" fill="#6b7280" font-family="monospace" text-anchor="end">0.2%</text>
<rect x="645" y="395" width="9" height="9" fill="#374151" rx="1.5"/>
<text x="659" y="404" font-size="11" fill="#e5e7eb" font-family="monospace">Svelte</text>
<text x="844" y="404" font-size="11" fill="#6b7280" font-family="monospace" text-anchor="end">0.1%</text>
<rect x="30" y="417" width="9" height="9" fill="#374151" rx="1.5"/>
<text x="44" y="426" font-size="11" fill="#e5e7eb" font-family="monospace">Elixir</text>
<text x="229" y="426" font-size="11" fill="#6b7280" font-family="monospace" text-anchor="end">0.1%</text>
<rect x="235" y="417" width="9" height="9" fill="#374151" rx="1.5"/>
<text x="249" y="426" font-size="11" fill="#e5e7eb" font-family="monospace">GLSL</text>
<text x="434" y="426" font-size="11" fill="#6b7280" font-family="monospace" text-anchor="end">0.1%</text>
<rect x="440" y="417" width="9" height="9" fill="#374151" rx="1.5"/>
<text x="454" y="426" font-size="11" fill="#e5e7eb" font-family="monospace">TypeScript</text>
<text x="639" y="426" font-size="11" fill="#6b7280" font-family="monospace" text-anchor="end">&lt;0.1%</text>
<rect x="645" y="417" width="9" height="9" fill="#374151" rx="1.5"/>
<text x="659" y="426" font-size="11" fill="#e5e7eb" font-family="monospace">VHDL</text>
<text x="844" y="426" font-size="11" fill="#6b7280" font-family="monospace" text-anchor="end">&lt;0.1%</text>
<rect x="30" y="439" width="9" height="9" fill="#374151" rx="1.5"/>
<text x="44" y="448" font-size="11" fill="#e5e7eb" font-family="monospace">Verilog</text>
<text x="229" y="448" font-size="11" fill="#6b7280" font-family="monospace" text-anchor="end">&lt;0.1%</text>

</svg>