<svg width="800" height="280" viewBox="0 0 800 280" xmlns="http://www.w3.org/2000/svg">
    <rect width="100%" height="100%" fill="#0b0f1a"/>
    <text x="40" y="36" font-size="16" fill="#e5e7eb">Languages by repositories</text>
    <text x="440" y="36" font-size="16" fill="#e5e7eb">Languages by activity</text>

    <!-- left legend -->
    <rect x="40" y="58" width="12" height="12" fill="#f97316" rx="2"/>
<text x="58" y="68" font-size="12" fill="#e5e7eb">Python — 23%</text>
<rect x="40" y="78" width="12" height="12" fill="#eab308" rx="2"/>
<text x="58" y="88" font-size="12" fill="#e5e7eb">C — 23%</text>
<rect x="40" y="98" width="12" height="12" fill="#22c55e" rx="2"/>
<text x="58" y="108" font-size="12" fill="#e5e7eb">C++ — 14%</text>
<rect x="40" y="118" width="12" height="12" fill="#fb7185" rx="2"/>
<text x="58" y="128" font-size="12" fill="#e5e7eb">Rust — 14%</text>
<rect x="40" y="138" width="12" height="12" fill="#a78bfa" rx="2"/>
<text x="58" y="148" font-size="12" fill="#e5e7eb">Assembly — 9%</text>
<rect x="40" y="158" width="12" height="12" fill="#6b7280" rx="2"/>
<text x="58" y="168" font-size="12" fill="#e5e7eb">Other — 18%</text>

    <!-- right legend -->
    <rect x="440" y="58" width="12" height="12" fill="#06b6d4" rx="2"/>
<text x="458" y="68" font-size="12" fill="#e5e7eb">C++ — 26%</text>
<rect x="440" y="78" width="12" height="12" fill="#6366f1" rx="2"/>
<text x="458" y="88" font-size="12" fill="#e5e7eb">Rust — 19%</text>
<rect x="440" y="98" width="12" height="12" fill="#00c2a8" rx="2"/>
<text x="458" y="108" font-size="12" fill="#e5e7eb">Python — 19%</text>
<rect x="440" y="118" width="12" height="12" fill="#ff6b6b" rx="2"/>
<text x="458" y="128" font-size="12" fill="#e5e7eb">Jupyter Notebook — 13%</text>
<rect x="440" y="138" width="12" height="12" fill="#ffd166" rx="2"/>
<text x="458" y="148" font-size="12" fill="#e5e7eb">C — 12%</text>
<rect x="440" y="158" width="12" height="12" fill="#6b7280" rx="2"/>
<text x="458" y="168" font-size="12" fill="#e5e7eb">Other — 11%</text>

    # left pie
    <path d="M280.0,72.0 A88,88 0 0 1 367.1042868855221,147.4762942319509 L335.4300007453322,152.03036905669603 A56,56 0 0 0 280.0,104.0 Z" fill="#f97316"/><path d="M367.1042868855221,147.4762942319509 A88,88 0 0 1 304.79246500204584,244.43538167807577 L295.7770231831201,213.73160652241185 A56,56 0 0 0 335.4300007453322,152.03036905669603 Z" fill="#eab308"/><path d="M304.79246500204584,244.43538167807577 A88,88 0 0 1 232.42360806390744,234.03031088914395 L249.72411422248655,207.11019783854616 A56,56 0 0 0 295.7770231831201,213.73160652241185 Z" fill="#22c55e"/><path d="M232.42360806390744,234.03031088914395 A88,88 0 0 1 192.89571311447793,172.52370576804913 L224.56999925466778,167.969630943304 A56,56 0 0 0 249.72411422248655,207.11019783854616 Z" fill="#fb7185"/><path d="M192.89571311447793,172.52370576804913 A88,88 0 0 1 199.95238440880237,123.44347885583403 L229.06060826014698,136.73675927189439 A56,56 0 0 0 224.56999925466778,167.969630943304 Z" fill="#a78bfa"/><path d="M199.95238440880237,123.44347885583403 A88,88 0 0 1 280.0,72.0 L280.0,104.0 A56,56 0 0 0 229.06060826014698,136.73675927189439 Z" fill="#6b7280"/>
    # right pie
    <path d="M680.0,72.0 A88,88 0 0 1 767.9474756162211,163.03998893652394 L735.9665753921407,161.9345384141516 A56,56 0 0 0 680.0,104.0 Z" fill="#06b6d4"/><path d="M767.9474756162211,163.03998893652394 A88,88 0 0 1 708.0373827343147,243.41405858372764 L697.8419708309276,213.08167364419032 A56,56 0 0 0 735.9665753921407,161.9345384141516 Z" fill="#6366f1"/><path d="M708.0373827343147,243.41405858372764 A88,88 0 0 1 613.5497654488295,217.69199535546002 L637.7134871038006,196.71308795347454 A56,56 0 0 0 697.8419708309276,213.08167364419032 Z" fill="#00c2a8"/><path d="M613.5497654488295,217.69199535546002 A88,88 0 0 1 592.4723433273721,150.8945446352983 L624.3005821174186,154.20561931337164 A56,56 0 0 0 637.7134871038006,196.71308795347454 Z" fill="#ff6b6b"/><path d="M592.4723433273721,150.8945446352983 A88,88 0 0 1 623.1961506473913,92.78896892082277 L643.8520958665217,117.22934385870539 A56,56 0 0 0 624.3005821174186,154.20561931337164 Z" fill="#ffd166"/><path d="M623.1961506473913,92.78896892082277 A88,88 0 0 1 680.0,72.0 L680.0,104.0 A56,56 0 0 0 643.8520958665217,117.22934385870539 Z" fill="#6b7280"/>

    </svg>