<svg width="700" height="360" viewBox="0 0 700 360"
      xmlns="http://www.w3.org/2000/svg">
      <rect width="100%" height="100%" fill="#0b0f1a"/>

      <text x="40" y="32" font-size="16" fill="#e5e7eb">
        Languages by repositories
      </text>

      <text x="380" y="32" font-size="16" fill="#e5e7eb">
        Languages by activity
      </text>

      
        <rect x="40" y="60" width="12" height="12" fill="#f97316" rx="2"/>
        <text x="58" y="71" font-size="12" fill="#e5e7eb">
          Python — 19%
        </text>
        
        <rect x="40" y="78" width="12" height="12" fill="#eab308" rx="2"/>
        <text x="58" y="89" font-size="12" fill="#e5e7eb">
          Makefile — 16%
        </text>
        
        <rect x="40" y="96" width="12" height="12" fill="#22c55e" rx="2"/>
        <text x="58" y="107" font-size="12" fill="#e5e7eb">
          C — 14%
        </text>
        
        <rect x="40" y="114" width="12" height="12" fill="#fb7185" rx="2"/>
        <text x="58" y="125" font-size="12" fill="#e5e7eb">
          C++ — 11%
        </text>
        
        <rect x="40" y="132" width="12" height="12" fill="#a78bfa" rx="2"/>
        <text x="58" y="143" font-size="12" fill="#e5e7eb">
          Shell — 8%
        </text>
        
        <rect x="40" y="150" width="12" height="12" fill="#6b7280" rx="2"/>
        <text x="58" y="161" font-size="12" fill="#e5e7eb">
          Other — 32%
        </text>
        
      
        <rect x="380" y="60" width="12" height="12" fill="#38bdf8" rx="2"/>
        <text x="398" y="71" font-size="12" fill="#e5e7eb">
          Python — 22%
        </text>
        
        <rect x="380" y="78" width="12" height="12" fill="#14b8a6" rx="2"/>
        <text x="398" y="89" font-size="12" fill="#e5e7eb">
          Rust — 20%
        </text>
        
        <rect x="380" y="96" width="12" height="12" fill="#6366f1" rx="2"/>
        <text x="398" y="107" font-size="12" fill="#e5e7eb">
          Makefile — 20%
        </text>
        
        <rect x="380" y="114" width="12" height="12" fill="#06b6d4" rx="2"/>
        <text x="398" y="125" font-size="12" fill="#e5e7eb">
          C++ — 13%
        </text>
        
        <rect x="380" y="132" width="12" height="12" fill="#0ea5e9" rx="2"/>
        <text x="398" y="143" font-size="12" fill="#e5e7eb">
          Shell — 7%
        </text>
        
        <rect x="380" y="150" width="12" height="12" fill="#6b7280" rx="2"/>
        <text x="398" y="161" font-size="12" fill="#e5e7eb">
          Other — 18%
        </text>
        

      <path d="M220.0,80.0 A80,80 0 0 1 294.23112218372074,130.1714817775753 L266.39445136482544,141.35717611098457 A50,50 0 0 0 220.0,110.0 Z" fill="#f97316"/><path d="M294.23112218372074,130.1714817775753 A80,80 0 0 1 284.31977042935523,207.57065410434294 L260.199856518347,189.73165881521433 A50,50 0 0 0 266.39445136482544,141.35717611098457 Z" fill="#eab308"/><path d="M284.31977042935523,207.57065410434294 A80,80 0 0 1 226.7844739580407,239.71179908340213 L224.24029622377546,209.81987442712634 A50,50 0 0 0 260.199856518347,189.73165881521433 Z" fill="#22c55e"/><path d="M226.7844739580407,239.71179908340213 A80,80 0 0 1 175.20201710899235,226.28077193950736 L192.00126069312023,201.4254824621921 A50,50 0 0 0 224.24029622377546,209.81987442712634 Z" fill="#fb7185"/><path d="M175.20201710899235,226.28077193950736 A80,80 0 0 1 148.5659313480345,196.01629958541383 L175.35370709252157,182.51018724088362 A50,50 0 0 0 192.00126069312023,201.4254824621921 Z" fill="#a78bfa"/><path d="M148.5659313480345,196.01629958541383 A80,80 0 0 1 220.00000000000006,80.0 L220.00000000000003,110.0 A50,50 0 0 0 175.35370709252157,182.51018724088362 Z" fill="#6b7280"/>
      <path d="M520.0,80.0 A80,80 0 0 1 598.9695754460789,147.20132218289527 L569.3559846537993,152.00082636430955 A50,50 0 0 0 520.0,110.0 Z" fill="#38bdf8"/><path d="M598.9695754460789,147.20132218289527 A80,80 0 0 1 558.0599626341569,230.3664639177398 L543.7874766463481,203.97903994858737 A50,50 0 0 0 569.3559846537993,152.00082636430955 Z" fill="#14b8a6"/><path d="M558.0599626341569,230.3664639177398 A80,80 0 0 1 466.55045493902674,219.5243322749192 L486.5940343368917,197.2027076718245 A50,50 0 0 0 543.7874766463481,203.97903994858737 Z" fill="#6366f1"/><path d="M466.55045493902674,219.5243322749192 A80,80 0 0 1 440.05507526482535,162.96799748774495 L470.03442204051584,161.85499842984058 A50,50 0 0 0 486.5940343368917,197.2027076718245 Z" fill="#06b6d4"/><path d="M440.05507526482535,162.96799748774495 A80,80 0 0 1 447.049729836157,127.16315966749671 L474.4060811475981,139.47697479218544 A50,50 0 0 0 470.03442204051584,161.85499842984058 Z" fill="#0ea5e9"/><path d="M447.049729836157,127.16315966749671 A80,80 0 0 1 520.0,80.0 L520.0,110.0 A50,50 0 0 0 474.4060811475981,139.47697479218544 Z" fill="#6b7280"/>
    </svg>