<svg width="880" height="478" viewBox="0 0 880 478"
     xmlns="http://www.w3.org/2000/svg">
  <rect width="100%" height="100%" fill="#0b0f1a" rx="14"/>

  <!-- ══ PIE PANELS ══════════════════════════════════════════ -->
  <text x="30" y="26" font-size="13" font-weight="bold"
        fill="#e5e7eb" font-family="monospace">Code size</text>
  <text x="30" y="42" font-size="10" fill="#6b7280"
        font-family="monospace">bytes across all repos · public + private</text>

  <text x="468" y="26" font-size="13" font-weight="bold"
        fill="#e5e7eb" font-family="monospace">Activity</text>
  <text x="468" y="42" font-size="10" fill="#6b7280"
        font-family="monospace">commits distributed by byte share per repo</text>

  <line x1="439" y1="14" x2="439" y2="298"
        stroke="#1f2937" stroke-width="1"/>

  <rect x="30" y="61" width="10" height="10" fill="#f97316" rx="2"/>
<text x="45" y="71" font-size="11" fill="#e5e7eb" font-family="monospace">Python</text>
<text x="190" y="71" font-size="11" fill="#6b7280" font-family="monospace" text-anchor="end">43%</text>
<rect x="30" y="82" width="10" height="10" fill="#eab308" rx="2"/>
<text x="45" y="92" font-size="11" fill="#e5e7eb" font-family="monospace">C</text>
<text x="190" y="92" font-size="11" fill="#6b7280" font-family="monospace" text-anchor="end">35%</text>
<rect x="30" y="103" width="10" height="10" fill="#22c55e" rx="2"/>
<text x="45" y="113" font-size="11" fill="#e5e7eb" font-family="monospace">C++</text>
<text x="190" y="113" font-size="11" fill="#6b7280" font-family="monospace" text-anchor="end">13%</text>
<rect x="30" y="124" width="10" height="10" fill="#fb7185" rx="2"/>
<text x="45" y="134" font-size="11" fill="#e5e7eb" font-family="monospace">Rust</text>
<text x="190" y="134" font-size="11" fill="#6b7280" font-family="monospace" text-anchor="end">6%</text>
<rect x="30" y="145" width="10" height="10" fill="#a78bfa" rx="2"/>
<text x="45" y="155" font-size="11" fill="#e5e7eb" font-family="monospace">Shell</text>
<text x="190" y="155" font-size="11" fill="#6b7280" font-family="monospace" text-anchor="end">1%</text>
<rect x="30" y="166" width="10" height="10" fill="#f43f5e" rx="2"/>
<text x="45" y="176" font-size="11" fill="#e5e7eb" font-family="monospace">Assembly</text>
<text x="190" y="176" font-size="11" fill="#6b7280" font-family="monospace" text-anchor="end">0%</text>
<rect x="30" y="187" width="10" height="10" fill="#84cc16" rx="2"/>
<text x="45" y="197" font-size="11" fill="#e5e7eb" font-family="monospace">Java</text>
<text x="190" y="197" font-size="11" fill="#6b7280" font-family="monospace" text-anchor="end">0%</text>
<rect x="30" y="208" width="10" height="10" fill="#fbbf24" rx="2"/>
<text x="45" y="218" font-size="11" fill="#e5e7eb" font-family="monospace">Lua</text>
<text x="190" y="218" font-size="11" fill="#6b7280" font-family="monospace" text-anchor="end">0%</text>
<rect x="30" y="229" width="10" height="10" fill="#34d399" rx="2"/>
<text x="45" y="239" font-size="11" fill="#e5e7eb" font-family="monospace">CMake</text>
<text x="190" y="239" font-size="11" fill="#6b7280" font-family="monospace" text-anchor="end">0%</text>
<rect x="30" y="250" width="10" height="10" fill="#c084fc" rx="2"/>
<text x="45" y="260" font-size="11" fill="#e5e7eb" font-family="monospace">JavaScript</text>
<text x="190" y="260" font-size="11" fill="#6b7280" font-family="monospace" text-anchor="end">0%</text>

  <path d="M318.00,88.00 A92,92 0 0 1 359.77,261.97 L344.33,231.68 A58,58 0 0 0 318.00,122.00 Z" fill="#f97316"/><path d="M359.77,261.97 A92,92 0 0 1 227.32,164.45 L260.83,170.20 A58,58 0 0 0 344.33,231.68 Z" fill="#eab308"/><path d="M227.32,164.45 A92,92 0 0 1 268.73,102.31 L286.94,131.02 A58,58 0 0 0 260.83,170.20 Z" fill="#22c55e"/><path d="M268.73,102.31 A92,92 0 0 1 303.22,89.19 L308.68,122.75 A58,58 0 0 0 286.94,131.02 Z" fill="#fb7185"/><path d="M303.22,89.19 A92,92 0 0 1 309.63,88.38 L312.72,122.24 A58,58 0 0 0 308.68,122.75 Z" fill="#a78bfa"/><path d="M309.63,88.38 A92,92 0 0 1 311.95,88.20 L314.19,122.13 A58,58 0 0 0 312.72,122.24 Z" fill="#f43f5e"/><path d="M311.95,88.20 A92,92 0 0 1 314.15,88.08 L315.57,122.05 A58,58 0 0 0 314.19,122.13 Z" fill="#84cc16"/><path d="M314.15,88.08 A92,92 0 0 1 315.65,88.03 L316.52,122.02 A58,58 0 0 0 315.57,122.05 Z" fill="#fbbf24"/><path d="M315.65,88.03 A92,92 0 0 1 317.13,88.00 L317.45,122.00 A58,58 0 0 0 316.52,122.02 Z" fill="#34d399"/><path d="M317.13,88.00 A92,92 0 0 1 318.00,88.00 L318.00,122.00 A58,58 0 0 0 317.45,122.00 Z" fill="#c084fc"/>

  <rect x="468" y="61" width="10" height="10" fill="#06b6d4" rx="2"/>
<text x="483" y="71" font-size="11" fill="#e5e7eb" font-family="monospace">Python</text>
<text x="628" y="71" font-size="11" fill="#6b7280" font-family="monospace" text-anchor="end">28%</text>
<rect x="468" y="82" width="10" height="10" fill="#6366f1" rx="2"/>
<text x="483" y="92" font-size="11" fill="#e5e7eb" font-family="monospace">C++</text>
<text x="628" y="92" font-size="11" fill="#6b7280" font-family="monospace" text-anchor="end">25%</text>
<rect x="468" y="103" width="10" height="10" fill="#00c2a8" rx="2"/>
<text x="483" y="113" font-size="11" fill="#e5e7eb" font-family="monospace">Rust</text>
<text x="628" y="113" font-size="11" fill="#6b7280" font-family="monospace" text-anchor="end">20%</text>
<rect x="468" y="124" width="10" height="10" fill="#ff6b6b" rx="2"/>
<text x="483" y="134" font-size="11" fill="#e5e7eb" font-family="monospace">C</text>
<text x="628" y="134" font-size="11" fill="#6b7280" font-family="monospace" text-anchor="end">12%</text>
<rect x="468" y="145" width="10" height="10" fill="#ffd166" rx="2"/>
<text x="483" y="155" font-size="11" fill="#e5e7eb" font-family="monospace">Assembly</text>
<text x="628" y="155" font-size="11" fill="#6b7280" font-family="monospace" text-anchor="end">6%</text>
<rect x="468" y="166" width="10" height="10" fill="#38bdf8" rx="2"/>
<text x="483" y="176" font-size="11" fill="#e5e7eb" font-family="monospace">Shell</text>
<text x="628" y="176" font-size="11" fill="#6b7280" font-family="monospace" text-anchor="end">6%</text>
<rect x="468" y="187" width="10" height="10" fill="#818cf8" rx="2"/>
<text x="483" y="197" font-size="11" fill="#e5e7eb" font-family="monospace">Lua</text>
<text x="628" y="197" font-size="11" fill="#6b7280" font-family="monospace" text-anchor="end">2%</text>
<rect x="468" y="208" width="10" height="10" fill="#2dd4bf" rx="2"/>
<text x="483" y="218" font-size="11" fill="#e5e7eb" font-family="monospace">Java</text>
<text x="628" y="218" font-size="11" fill="#6b7280" font-family="monospace" text-anchor="end">1%</text>
<rect x="468" y="229" width="10" height="10" fill="#fb923c" rx="2"/>
<text x="483" y="239" font-size="11" fill="#e5e7eb" font-family="monospace">VHDL</text>
<text x="628" y="239" font-size="11" fill="#6b7280" font-family="monospace" text-anchor="end">0%</text>
<rect x="468" y="250" width="10" height="10" fill="#e879f9" rx="2"/>
<text x="483" y="260" font-size="11" fill="#e5e7eb" font-family="monospace">Verilog</text>
<text x="628" y="260" font-size="11" fill="#6b7280" font-family="monospace" text-anchor="end">0%</text>

  <path d="M756.00,88.00 A92,92 0 0 1 846.38,197.17 L812.98,190.82 A58,58 0 0 0 756.00,122.00 Z" fill="#06b6d4"/><path d="M846.38,197.17 A92,92 0 0 1 741.36,270.83 L746.77,237.26 A58,58 0 0 0 812.98,190.82 Z" fill="#6366f1"/><path d="M741.36,270.83 A92,92 0 0 1 665.13,194.38 L698.71,189.07 A58,58 0 0 0 746.77,237.26 Z" fill="#00c2a8"/><path d="M665.13,194.38 A92,92 0 0 1 680.21,127.85 L708.22,147.12 A58,58 0 0 0 698.71,189.07 Z" fill="#ff6b6b"/><path d="M680.21,127.85 A92,92 0 0 1 705.98,102.79 L724.47,131.32 A58,58 0 0 0 708.22,147.12 Z" fill="#ffd166"/><path d="M705.98,102.79 A92,92 0 0 1 737.26,89.93 L744.19,123.22 A58,58 0 0 0 724.47,131.32 Z" fill="#38bdf8"/><path d="M737.26,89.93 A92,92 0 0 1 747.13,88.43 L750.41,122.27 A58,58 0 0 0 744.19,123.22 Z" fill="#818cf8"/><path d="M747.13,88.43 A92,92 0 0 1 755.00,88.01 L755.37,122.00 A58,58 0 0 0 750.41,122.27 Z" fill="#2dd4bf"/><path d="M755.00,88.01 A92,92 0 0 1 755.55,88.00 L755.72,122.00 A58,58 0 0 0 755.37,122.00 Z" fill="#fb923c"/><path d="M755.55,88.00 A92,92 0 0 1 756.00,88.00 L756.00,122.00 A58,58 0 0 0 755.72,122.00 Z" fill="#e879f9"/>

  <!-- ══ ROSTER SECTION ═══════════════════════════════════════ -->
  <line x1="30" y1="312" x2="850" y2="312"
        stroke="#1f2937" stroke-width="1"/>

  <text x="30" y="334" font-size="13" font-weight="bold"
        fill="#e5e7eb" font-family="monospace">All languages detected</text>
  <text x="850" y="334" font-size="10" fill="#6b7280"
        font-family="monospace" text-anchor="end"
        >sorted by code size · highlighted = top 10</text>

  <rect x="30" y="351" width="9" height="9" fill="#f97316" rx="1.5"/>
<text x="44" y="360" font-size="11" fill="#e5e7eb" font-family="monospace">Python</text>
<text x="229" y="360" font-size="11" fill="#6b7280" font-family="monospace" text-anchor="end">42.5%</text>
<rect x="235" y="351" width="9" height="9" fill="#eab308" rx="1.5"/>
<text x="249" y="360" font-size="11" fill="#e5e7eb" font-family="monospace">C</text>
<text x="434" y="360" font-size="11" fill="#6b7280" font-family="monospace" text-anchor="end">35.2%</text>
<rect x="440" y="351" width="9" height="9" fill="#22c55e" rx="1.5"/>
<text x="454" y="360" font-size="11" fill="#e5e7eb" font-family="monospace">C++</text>
<text x="639" y="360" font-size="11" fill="#6b7280" font-family="monospace" text-anchor="end">13.3%</text>
<rect x="645" y="351" width="9" height="9" fill="#fb7185" rx="1.5"/>
<text x="659" y="360" font-size="11" fill="#e5e7eb" font-family="monospace">Rust</text>
<text x="844" y="360" font-size="11" fill="#6b7280" font-family="monospace" text-anchor="end">6.4%</text>
<rect x="30" y="373" width="9" height="9" fill="#a78bfa" rx="1.5"/>
<text x="44" y="382" font-size="11" fill="#e5e7eb" font-family="monospace">Shell</text>
<text x="229" y="382" font-size="11" fill="#6b7280" font-family="monospace" text-anchor="end">1.1%</text>
<rect x="235" y="373" width="9" height="9" fill="#f43f5e" rx="1.5"/>
<text x="249" y="382" font-size="11" fill="#e5e7eb" font-family="monospace">Assembly</text>
<text x="434" y="382" font-size="11" fill="#6b7280" font-family="monospace" text-anchor="end">0.4%</text>
<rect x="440" y="373" width="9" height="9" fill="#84cc16" rx="1.5"/>
<text x="454" y="382" font-size="11" fill="#e5e7eb" font-family="monospace">Java</text>
<text x="639" y="382" font-size="11" fill="#6b7280" font-family="monospace" text-anchor="end">0.4%</text>
<rect x="645" y="373" width="9" height="9" fill="#fbbf24" rx="1.5"/>
<text x="659" y="382" font-size="11" fill="#e5e7eb" font-family="monospace">Lua</text>
<text x="844" y="382" font-size="11" fill="#6b7280" font-family="monospace" text-anchor="end">0.3%</text>
<rect x="30" y="395" width="9" height="9" fill="#34d399" rx="1.5"/>
<text x="44" y="404" font-size="11" fill="#e5e7eb" font-family="monospace">CMake</text>
<text x="229" y="404" font-size="11" fill="#6b7280" font-family="monospace" text-anchor="end">0.3%</text>
<rect x="235" y="395" width="9" height="9" fill="#c084fc" rx="1.5"/>
<text x="249" y="404" font-size="11" fill="#e5e7eb" font-family="monospace">JavaScript</text>
<text x="434" y="404" font-size="11" fill="#6b7280" font-family="monospace" text-anchor="end">0.2%</text>
<rect x="440" y="395" width="9" height="9" fill="#374151" rx="1.5"/>
<text x="454" y="404" font-size="11" fill="#e5e7eb" font-family="monospace">GLSL</text>
<text x="639" y="404" font-size="11" fill="#6b7280" font-family="monospace" text-anchor="end">0.1%</text>
<rect x="645" y="395" width="9" height="9" fill="#374151" rx="1.5"/>
<text x="659" y="404" font-size="11" fill="#e5e7eb" font-family="monospace">VHDL</text>
<text x="844" y="404" font-size="11" fill="#6b7280" font-family="monospace" text-anchor="end">&lt;0.1%</text>
<rect x="30" y="417" width="9" height="9" fill="#374151" rx="1.5"/>
<text x="44" y="426" font-size="11" fill="#e5e7eb" font-family="monospace">Verilog</text>
<text x="229" y="426" font-size="11" fill="#6b7280" font-family="monospace" text-anchor="end">&lt;0.1%</text>

</svg>