<svg width="520" height="280" viewBox="0 0 520 280"
      xmlns="http://www.w3.org/2000/svg">
      <rect width="100%" height="100%" fill="#0b0f1a"/>
      <text x="20" y="24" font-size="16" fill="#e5e7eb">Languages by code size — Thopterek</text>
      <path d="M160.0,50.0 A90,90 0 0 1 229.22655434233383,197.51246972516395 L202.30511654253735,175.1465092764891 A55,55 0 0 0 160.0,85.0 Z" fill="#f97316"/><path d="M229.22655434233383,197.51246972516395 A90,90 0 0 1 72.21075280075769,159.82544012601807 L106.35101560046303,152.1155467436777 A55,55 0 0 0 202.30511654253735,175.1465092764891 Z" fill="#1e3a8a"/><path d="M72.21075280075769,159.82544012601807 A90,90 0 0 1 86.17438772505191,88.52399615132276 L114.8843480541984,108.54244209247503 A55,55 0 0 0 106.35101560046303,152.1155467436777 Z" fill="#fb923c"/><path d="M86.17438772505191,88.52399615132276 A90,90 0 0 1 115.14032793815377,61.976863543538485 L132.5857559622051,92.31919438771797 A55,55 0 0 0 114.8843480541984,108.54244209247503 Z" fill="#334155"/><path d="M115.14032793815377,61.976863543538485 A90,90 0 0 1 148.14024619516087,50.784831784675745 L152.75237267482052,85.47961942396851 A55,55 0 0 0 132.5857559622051,92.31919438771797 Z" fill="#fdba74"/><path d="M148.14024619516087,50.784831784675745 A90,90 0 0 1 159.99999999999997,50.0 L160.0,85.0 A55,55 0 0 0 152.75237267482052,85.47961942396851 Z" fill="#475569"/>
      
        <rect x="300" y="50" width="12" height="12" fill="#f97316" rx="2"/>
        <text x="320" y="60" font-size="12" fill="#e5e7eb">Jupyter Notebook — 36%</text>
        
        <rect x="300" y="70" width="12" height="12" fill="#1e3a8a" rx="2"/>
        <text x="320" y="80" font-size="12" fill="#e5e7eb">C — 35%</text>
        
        <rect x="300" y="90" width="12" height="12" fill="#fb923c" rx="2"/>
        <text x="320" y="100" font-size="12" fill="#e5e7eb">C++ — 13%</text>
        
        <rect x="300" y="110" width="12" height="12" fill="#334155" rx="2"/>
        <text x="320" y="120" font-size="12" fill="#e5e7eb">Python — 7%</text>
        
        <rect x="300" y="130" width="12" height="12" fill="#fdba74" rx="2"/>
        <text x="320" y="140" font-size="12" fill="#e5e7eb">Rust — 6%</text>
        
        <rect x="300" y="150" width="12" height="12" fill="#475569" rx="2"/>
        <text x="320" y="160" font-size="12" fill="#e5e7eb">Other — 2%</text>
        
    </svg>