<svg width="880" height="478" viewBox="0 0 880 478"
     xmlns="http://www.w3.org/2000/svg">
  <rect width="100%" height="100%" fill="#0b0f1a" rx="14"/>

  <!-- ══ PIE PANELS ══════════════════════════════════════════ -->
  <text x="30" y="26" font-size="13" font-weight="bold"
        fill="#e5e7eb" font-family="monospace">Code size</text>
  <text x="30" y="42" font-size="10" fill="#6b7280"
        font-family="monospace">bytes across all repos · public + private</text>

  <text x="468" y="26" font-size="13" font-weight="bold"
        fill="#e5e7eb" font-family="monospace">Activity</text>
  <text x="468" y="42" font-size="10" fill="#6b7280"
        font-family="monospace">commits distributed by byte share per repo</text>

  <line x1="439" y1="14" x2="439" y2="298"
        stroke="#1f2937" stroke-width="1"/>

  <rect x="30" y="61" width="10" height="10" fill="#f97316" rx="2"/>
<text x="45" y="71" font-size="11" fill="#e5e7eb" font-family="monospace">Python</text>
<text x="190" y="71" font-size="11" fill="#6b7280" font-family="monospace" text-anchor="end">42%</text>
<rect x="30" y="82" width="10" height="10" fill="#eab308" rx="2"/>
<text x="45" y="92" font-size="11" fill="#e5e7eb" font-family="monospace">C</text>
<text x="190" y="92" font-size="11" fill="#6b7280" font-family="monospace" text-anchor="end">35%</text>
<rect x="30" y="103" width="10" height="10" fill="#22c55e" rx="2"/>
<text x="45" y="113" font-size="11" fill="#e5e7eb" font-family="monospace">C++</text>
<text x="190" y="113" font-size="11" fill="#6b7280" font-family="monospace" text-anchor="end">13%</text>
<rect x="30" y="124" width="10" height="10" fill="#fb7185" rx="2"/>
<text x="45" y="134" font-size="11" fill="#e5e7eb" font-family="monospace">Rust</text>
<text x="190" y="134" font-size="11" fill="#6b7280" font-family="monospace" text-anchor="end">7%</text>
<rect x="30" y="145" width="10" height="10" fill="#a78bfa" rx="2"/>
<text x="45" y="155" font-size="11" fill="#e5e7eb" font-family="monospace">Shell</text>
<text x="190" y="155" font-size="11" fill="#6b7280" font-family="monospace" text-anchor="end">1%</text>
<rect x="30" y="166" width="10" height="10" fill="#f43f5e" rx="2"/>
<text x="45" y="176" font-size="11" fill="#e5e7eb" font-family="monospace">Assembly</text>
<text x="190" y="176" font-size="11" fill="#6b7280" font-family="monospace" text-anchor="end">0%</text>
<rect x="30" y="187" width="10" height="10" fill="#84cc16" rx="2"/>
<text x="45" y="197" font-size="11" fill="#e5e7eb" font-family="monospace">Java</text>
<text x="190" y="197" font-size="11" fill="#6b7280" font-family="monospace" text-anchor="end">0%</text>
<rect x="30" y="208" width="10" height="10" fill="#fbbf24" rx="2"/>
<text x="45" y="218" font-size="11" fill="#e5e7eb" font-family="monospace">Lua</text>
<text x="190" y="218" font-size="11" fill="#6b7280" font-family="monospace" text-anchor="end">0%</text>
<rect x="30" y="229" width="10" height="10" fill="#34d399" rx="2"/>
<text x="45" y="239" font-size="11" fill="#e5e7eb" font-family="monospace">CMake</text>
<text x="190" y="239" font-size="11" fill="#6b7280" font-family="monospace" text-anchor="end">0%</text>
<rect x="30" y="250" width="10" height="10" fill="#c084fc" rx="2"/>
<text x="45" y="260" font-size="11" fill="#e5e7eb" font-family="monospace">JavaScript</text>
<text x="190" y="260" font-size="11" fill="#6b7280" font-family="monospace" text-anchor="end">0%</text>

  <path d="M318.00,88.00 A92,92 0 0 1 360.43,261.63 L344.75,231.46 A58,58 0 0 0 318.00,122.00 Z" fill="#f97316"/><path d="M360.43,261.63 A92,92 0 0 1 227.18,165.33 L260.74,170.75 A58,58 0 0 0 344.75,231.46 Z" fill="#eab308"/><path d="M227.18,165.33 A92,92 0 0 1 267.78,102.92 L286.34,131.40 A58,58 0 0 0 260.74,170.75 Z" fill="#22c55e"/><path d="M267.78,102.92 A92,92 0 0 1 302.99,89.23 L308.54,122.78 A58,58 0 0 0 286.34,131.40 Z" fill="#fb7185"/><path d="M302.99,89.23 A92,92 0 0 1 309.37,88.41 L312.56,122.26 A58,58 0 0 0 308.54,122.78 Z" fill="#a78bfa"/><path d="M309.37,88.41 A92,92 0 0 1 311.69,88.22 L314.02,122.14 A58,58 0 0 0 312.56,122.26 Z" fill="#f43f5e"/><path d="M311.69,88.22 A92,92 0 0 1 313.88,88.09 L315.40,122.06 A58,58 0 0 0 314.02,122.14 Z" fill="#84cc16"/><path d="M313.88,88.09 A92,92 0 0 1 315.43,88.04 L316.38,122.02 A58,58 0 0 0 315.40,122.06 Z" fill="#fbbf24"/><path d="M315.43,88.04 A92,92 0 0 1 316.90,88.01 L317.30,122.00 A58,58 0 0 0 316.38,122.02 Z" fill="#34d399"/><path d="M316.90,88.01 A92,92 0 0 1 318.00,88.00 L318.00,122.00 A58,58 0 0 0 317.30,122.00 Z" fill="#c084fc"/>

  <rect x="468" y="61" width="10" height="10" fill="#06b6d4" rx="2"/>
<text x="483" y="71" font-size="11" fill="#e5e7eb" font-family="monospace">Python</text>
<text x="628" y="71" font-size="11" fill="#6b7280" font-family="monospace" text-anchor="end">27%</text>
<rect x="468" y="82" width="10" height="10" fill="#6366f1" rx="2"/>
<text x="483" y="92" font-size="11" fill="#e5e7eb" font-family="monospace">C++</text>
<text x="628" y="92" font-size="11" fill="#6b7280" font-family="monospace" text-anchor="end">24%</text>
<rect x="468" y="103" width="10" height="10" fill="#00c2a8" rx="2"/>
<text x="483" y="113" font-size="11" fill="#e5e7eb" font-family="monospace">Rust</text>
<text x="628" y="113" font-size="11" fill="#6b7280" font-family="monospace" text-anchor="end">20%</text>
<rect x="468" y="124" width="10" height="10" fill="#ff6b6b" rx="2"/>
<text x="483" y="134" font-size="11" fill="#e5e7eb" font-family="monospace">C</text>
<text x="628" y="134" font-size="11" fill="#6b7280" font-family="monospace" text-anchor="end">12%</text>
<rect x="468" y="145" width="10" height="10" fill="#ffd166" rx="2"/>
<text x="483" y="155" font-size="11" fill="#e5e7eb" font-family="monospace">Assembly</text>
<text x="628" y="155" font-size="11" fill="#6b7280" font-family="monospace" text-anchor="end">6%</text>
<rect x="468" y="166" width="10" height="10" fill="#38bdf8" rx="2"/>
<text x="483" y="176" font-size="11" fill="#e5e7eb" font-family="monospace">Shell</text>
<text x="628" y="176" font-size="11" fill="#6b7280" font-family="monospace" text-anchor="end">6%</text>
<rect x="468" y="187" width="10" height="10" fill="#818cf8" rx="2"/>
<text x="483" y="197" font-size="11" fill="#e5e7eb" font-family="monospace">Lua</text>
<text x="628" y="197" font-size="11" fill="#6b7280" font-family="monospace" text-anchor="end">2%</text>
<rect x="468" y="208" width="10" height="10" fill="#2dd4bf" rx="2"/>
<text x="483" y="218" font-size="11" fill="#e5e7eb" font-family="monospace">JavaScript</text>
<text x="628" y="218" font-size="11" fill="#6b7280" font-family="monospace" text-anchor="end">1%</text>
<rect x="468" y="229" width="10" height="10" fill="#fb923c" rx="2"/>
<text x="483" y="239" font-size="11" fill="#e5e7eb" font-family="monospace">Java</text>
<text x="628" y="239" font-size="11" fill="#6b7280" font-family="monospace" text-anchor="end">1%</text>
<rect x="468" y="250" width="10" height="10" fill="#e879f9" rx="2"/>
<text x="483" y="260" font-size="11" fill="#e5e7eb" font-family="monospace">Svelte</text>
<text x="628" y="260" font-size="11" fill="#6b7280" font-family="monospace" text-anchor="end">0%</text>

  <path d="M756.00,88.00 A92,92 0 0 1 846.87,194.39 L813.29,189.07 A58,58 0 0 0 756.00,122.00 Z" fill="#06b6d4"/><path d="M846.87,194.39 A92,92 0 0 1 749.97,271.80 L752.20,237.88 A58,58 0 0 0 813.29,189.07 Z" fill="#6366f1"/><path d="M749.97,271.80 A92,92 0 0 1 667.10,203.70 L699.96,194.94 A58,58 0 0 0 752.20,237.88 Z" fill="#00c2a8"/><path d="M667.10,203.70 A92,92 0 0 1 676.16,134.29 L705.66,151.19 A58,58 0 0 0 699.96,194.94 Z" fill="#ff6b6b"/><path d="M676.16,134.29 A92,92 0 0 1 698.60,108.11 L719.81,134.68 A58,58 0 0 0 705.66,151.19 Z" fill="#ffd166"/><path d="M698.60,108.11 A92,92 0 0 1 727.18,92.63 L737.83,124.92 A58,58 0 0 0 719.81,134.68 Z" fill="#38bdf8"/><path d="M727.18,92.63 A92,92 0 0 1 737.35,89.91 L744.24,123.20 A58,58 0 0 0 737.83,124.92 Z" fill="#818cf8"/><path d="M737.35,89.91 A92,92 0 0 1 745.66,88.58 L749.48,122.37 A58,58 0 0 0 744.24,123.20 Z" fill="#2dd4bf"/><path d="M745.66,88.58 A92,92 0 0 1 754.05,88.02 L754.77,122.01 A58,58 0 0 0 749.48,122.37 Z" fill="#fb923c"/><path d="M754.05,88.02 A92,92 0 0 1 756.00,88.00 L756.00,122.00 A58,58 0 0 0 754.77,122.01 Z" fill="#e879f9"/>

  <!-- ══ ROSTER SECTION ═══════════════════════════════════════ -->
  <line x1="30" y1="312" x2="850" y2="312"
        stroke="#1f2937" stroke-width="1"/>

  <text x="30" y="334" font-size="13" font-weight="bold"
        fill="#e5e7eb" font-family="monospace">All languages detected</text>
  <text x="850" y="334" font-size="10" fill="#6b7280"
        font-family="monospace" text-anchor="end"
        >sorted by code size · highlighted = top 10</text>

  <rect x="30" y="351" width="9" height="9" fill="#f97316" rx="1.5"/>
<text x="44" y="360" font-size="11" fill="#e5e7eb" font-family="monospace">Python</text>
<text x="229" y="360" font-size="11" fill="#6b7280" font-family="monospace" text-anchor="end">42.3%</text>
<rect x="235" y="351" width="9" height="9" fill="#eab308" rx="1.5"/>
<text x="249" y="360" font-size="11" fill="#e5e7eb" font-family="monospace">C</text>
<text x="434" y="360" font-size="11" fill="#6b7280" font-family="monospace" text-anchor="end">35.2%</text>
<rect x="440" y="351" width="9" height="9" fill="#22c55e" rx="1.5"/>
<text x="454" y="360" font-size="11" fill="#e5e7eb" font-family="monospace">C++</text>
<text x="639" y="360" font-size="11" fill="#6b7280" font-family="monospace" text-anchor="end">13.3%</text>
<rect x="645" y="351" width="9" height="9" fill="#fb7185" rx="1.5"/>
<text x="659" y="360" font-size="11" fill="#e5e7eb" font-family="monospace">Rust</text>
<text x="844" y="360" font-size="11" fill="#6b7280" font-family="monospace" text-anchor="end">6.6%</text>
<rect x="30" y="373" width="9" height="9" fill="#a78bfa" rx="1.5"/>
<text x="44" y="382" font-size="11" fill="#e5e7eb" font-family="monospace">Shell</text>
<text x="229" y="382" font-size="11" fill="#6b7280" font-family="monospace" text-anchor="end">1.1%</text>
<rect x="235" y="373" width="9" height="9" fill="#f43f5e" rx="1.5"/>
<text x="249" y="382" font-size="11" fill="#e5e7eb" font-family="monospace">Assembly</text>
<text x="434" y="382" font-size="11" fill="#6b7280" font-family="monospace" text-anchor="end">0.4%</text>
<rect x="440" y="373" width="9" height="9" fill="#84cc16" rx="1.5"/>
<text x="454" y="382" font-size="11" fill="#e5e7eb" font-family="monospace">Java</text>
<text x="639" y="382" font-size="11" fill="#6b7280" font-family="monospace" text-anchor="end">0.4%</text>
<rect x="645" y="373" width="9" height="9" fill="#fbbf24" rx="1.5"/>
<text x="659" y="382" font-size="11" fill="#e5e7eb" font-family="monospace">Lua</text>
<text x="844" y="382" font-size="11" fill="#6b7280" font-family="monospace" text-anchor="end">0.3%</text>
<rect x="30" y="395" width="9" height="9" fill="#34d399" rx="1.5"/>
<text x="44" y="404" font-size="11" fill="#e5e7eb" font-family="monospace">CMake</text>
<text x="229" y="404" font-size="11" fill="#6b7280" font-family="monospace" text-anchor="end">0.3%</text>
<rect x="235" y="395" width="9" height="9" fill="#c084fc" rx="1.5"/>
<text x="249" y="404" font-size="11" fill="#e5e7eb" font-family="monospace">JavaScript</text>
<text x="434" y="404" font-size="11" fill="#6b7280" font-family="monospace" text-anchor="end">0.2%</text>
<rect x="440" y="395" width="9" height="9" fill="#374151" rx="1.5"/>
<text x="454" y="404" font-size="11" fill="#e5e7eb" font-family="monospace">GLSL</text>
<text x="639" y="404" font-size="11" fill="#6b7280" font-family="monospace" text-anchor="end">0.1%</text>
<rect x="645" y="395" width="9" height="9" fill="#374151" rx="1.5"/>
<text x="659" y="404" font-size="11" fill="#e5e7eb" font-family="monospace">Svelte</text>
<text x="844" y="404" font-size="11" fill="#6b7280" font-family="monospace" text-anchor="end">&lt;0.1%</text>
<rect x="30" y="417" width="9" height="9" fill="#374151" rx="1.5"/>
<text x="44" y="426" font-size="11" fill="#e5e7eb" font-family="monospace">TypeScript</text>
<text x="229" y="426" font-size="11" fill="#6b7280" font-family="monospace" text-anchor="end">&lt;0.1%</text>
<rect x="235" y="417" width="9" height="9" fill="#374151" rx="1.5"/>
<text x="249" y="426" font-size="11" fill="#e5e7eb" font-family="monospace">VHDL</text>
<text x="434" y="426" font-size="11" fill="#6b7280" font-family="monospace" text-anchor="end">&lt;0.1%</text>
<rect x="440" y="417" width="9" height="9" fill="#374151" rx="1.5"/>
<text x="454" y="426" font-size="11" fill="#e5e7eb" font-family="monospace">Verilog</text>
<text x="639" y="426" font-size="11" fill="#6b7280" font-family="monospace" text-anchor="end">&lt;0.1%</text>

</svg>