<svg width="800" height="280" viewBox="0 0 800 280" xmlns="http://www.w3.org/2000/svg">
    <rect width="100%" height="100%" fill="#0b0f1a"/>
    <text x="40" y="36" font-size="16" fill="#e5e7eb">Languages by repositories</text>
    <text x="440" y="36" font-size="16" fill="#e5e7eb">Languages by activity</text>

    <!-- left legend -->
    <rect x="40" y="58" width="12" height="12" fill="#f97316" rx="2"/>
<text x="58" y="68" font-size="12" fill="#e5e7eb">C — 22%</text>
<rect x="40" y="78" width="12" height="12" fill="#eab308" rx="2"/>
<text x="58" y="88" font-size="12" fill="#e5e7eb">Python — 17%</text>
<rect x="40" y="98" width="12" height="12" fill="#22c55e" rx="2"/>
<text x="58" y="108" font-size="12" fill="#e5e7eb">Assembly — 13%</text>
<rect x="40" y="118" width="12" height="12" fill="#fb7185" rx="2"/>
<text x="58" y="128" font-size="12" fill="#e5e7eb">C++ — 13%</text>
<rect x="40" y="138" width="12" height="12" fill="#a78bfa" rx="2"/>
<text x="58" y="148" font-size="12" fill="#e5e7eb">Rust — 13%</text>
<rect x="40" y="158" width="12" height="12" fill="#6b7280" rx="2"/>
<text x="58" y="168" font-size="12" fill="#e5e7eb">Other — 22%</text>

    <!-- right legend -->
    <rect x="440" y="58" width="12" height="12" fill="#06b6d4" rx="2"/>
<text x="458" y="68" font-size="12" fill="#e5e7eb">C++ — 27%</text>
<rect x="440" y="78" width="12" height="12" fill="#6366f1" rx="2"/>
<text x="458" y="88" font-size="12" fill="#e5e7eb">Rust — 21%</text>
<rect x="440" y="98" width="12" height="12" fill="#00c2a8" rx="2"/>
<text x="458" y="108" font-size="12" fill="#e5e7eb">Jupyter Notebook — 14%</text>
<rect x="440" y="118" width="12" height="12" fill="#ff6b6b" rx="2"/>
<text x="458" y="128" font-size="12" fill="#e5e7eb">C — 13%</text>
<rect x="440" y="138" width="12" height="12" fill="#ffd166" rx="2"/>
<text x="458" y="148" font-size="12" fill="#e5e7eb">Python — 13%</text>
<rect x="440" y="158" width="12" height="12" fill="#6b7280" rx="2"/>
<text x="458" y="168" font-size="12" fill="#e5e7eb">Other — 12%</text>

    # left pie
    <path d="M280.0,72.0 A88,88 0 0 1 366.1593997160444,142.0958708513682 L334.8287089102101,148.6064632690525 A56,56 0 0 0 280.0,104.0 Z" fill="#f97316"/><path d="M366.1593997160444,142.0958708513682 A88,88 0 0 1 335.53573910069264,228.26259358198894 L315.34092488225895,203.4398322794475 A56,56 0 0 0 334.8287089102101,148.6064632690525 Z" fill="#eab308"/><path d="M335.53573910069264,228.26259358198894 A88,88 0 0 1 268.0173348795303,247.1803632511971 L272.3746676506102,215.47841297803453 A56,56 0 0 0 315.34092488225895,203.4398322794475 Z" fill="#22c55e"/><path d="M268.0173348795303,247.1803632511971 A88,88 0 0 1 208.1066494150811,210.7478683461083 L234.24968599141525,192.29409803843257 A56,56 0 0 0 272.3746676506102,215.47841297803453 Z" fill="#fb7185"/><path d="M208.1066494150811,210.7478683461083 A88,88 0 0 1 193.84060028395558,142.09587085136823 L225.17129108978992,148.6064632690525 A56,56 0 0 0 234.24968599141525,192.29409803843257 Z" fill="#a78bfa"/><path d="M193.84060028395558,142.09587085136823 A88,88 0 0 1 280.0,72.0 L280.0,104.0 A56,56 0 0 0 225.17129108978992,148.6064632690525 Z" fill="#6b7280"/>
    # right pie
    <path d="M680.0,72.0 A88,88 0 0 1 767.0782293444696,172.7036205166858 L735.4134186737533,168.08412214698188 A56,56 0 0 0 680.0,104.0 Z" fill="#06b6d4"/><path d="M767.0782293444696,172.7036205166858 A88,88 0 0 1 690.4736008785676,247.37450248577366 L686.6650187409067,215.6019561273105 A56,56 0 0 0 735.4134186737533,168.08412214698188 Z" fill="#6366f1"/><path d="M690.4736008785676,247.37450248577366 A88,88 0 0 1 619.6578900323956,224.05333531251546 L641.6004754751608,200.76121338069166 A56,56 0 0 0 686.6650187409067,215.6019561273105 Z" fill="#00c2a8"/><path d="M619.6578900323956,224.05333531251546 A88,88 0 0 1 592.000355011054,159.7500363636988 L624.0002259161253,159.8409322314447 A56,56 0 0 0 641.6004754751608,200.76121338069166 Z" fill="#ff6b6b"/><path d="M592.000355011054,159.7500363636988 A88,88 0 0 1 618.5750453929641,96.98432773092418 L640.9113925227953,119.89911764695175 A56,56 0 0 0 624.0002259161253,159.8409322314447 Z" fill="#ffd166"/><path d="M618.5750453929641,96.98432773092418 A88,88 0 0 1 680.0000000000001,72.0 L680.0,104.0 A56,56 0 0 0 640.9113925227953,119.89911764695175 Z" fill="#6b7280"/>

    </svg>