<svg width="520" height="280" viewBox="0 0 520 280"
      xmlns="http://www.w3.org/2000/svg">
      <rect width="100%" height="100%" fill="#0b0f1a"/>
      <text x="20" y="24" font-size="16" fill="#e5e7eb">Languages by activity (commit-weighted)</text>
      <path d="M160.0,50.0 A90,90 0 0 1 249.98135695994654,138.1682250010764 L214.98860703107843,138.88058194510222 A55,55 0 0 0 160.0,85.0 Z" fill="#f97316"/><path d="M249.98135695994654,138.1682250010764 A90,90 0 0 1 187.48507091173155,225.70047185971083 L176.79643222383595,192.37251058093437 A55,55 0 0 0 214.98860703107843,138.88058194510222 Z" fill="#1e3a8a"/><path d="M187.48507091173155,225.70047185971083 A90,90 0 0 1 91.42642245479173,198.28948844046676 L118.09392483348384,175.6213540469519 A55,55 0 0 0 176.79643222383595,192.37251058093437 Z" fill="#fb923c"/><path d="M91.42642245479173,198.28948844046676 A90,90 0 0 1 70.70334094523908,128.770276866379 L105.42981946653498,133.1373914183427 A55,55 0 0 0 118.09392483348384,175.6213540469519 Z" fill="#334155"/><path d="M70.70334094523908,128.770276866379 A90,90 0 0 1 104.78875208560923,68.92456047455154 L126.25979294120565,96.56500917889261 A55,55 0 0 0 105.42981946653498,133.1373914183427 Z" fill="#fdba74"/><path d="M104.78875208560923,68.92456047455154 A90,90 0 0 1 159.99999999999991,50.0 L159.99999999999994,85.0 A55,55 0 0 0 126.25979294120565,96.56500917889261 Z" fill="#475569"/>
      
        <rect x="300" y="50" width="12" height="12" fill="#f97316" rx="2"/>
        <text x="320" y="60" font-size="12" fill="#e5e7eb">C++ — 25%</text>
        
        <rect x="300" y="70" width="12" height="12" fill="#1e3a8a" rx="2"/>
        <text x="320" y="80" font-size="12" fill="#e5e7eb">Rust — 20%</text>
        
        <rect x="300" y="90" width="12" height="12" fill="#fb923c" rx="2"/>
        <text x="320" y="100" font-size="12" fill="#e5e7eb">Python — 19%</text>
        
        <rect x="300" y="110" width="12" height="12" fill="#334155" rx="2"/>
        <text x="320" y="120" font-size="12" fill="#e5e7eb">Jupyter Notebook — 13%</text>
        
        <rect x="300" y="130" width="12" height="12" fill="#fdba74" rx="2"/>
        <text x="320" y="140" font-size="12" fill="#e5e7eb">C — 12%</text>
        
        <rect x="300" y="150" width="12" height="12" fill="#475569" rx="2"/>
        <text x="320" y="160" font-size="12" fill="#e5e7eb">Other — 11%</text>
        
    </svg>