<svg width="800" height="280" viewBox="0 0 800 280" xmlns="http://www.w3.org/2000/svg">
    <rect width="100%" height="100%" fill="#0b0f1a"/>
    <text x="40" y="36" font-size="16" fill="#e5e7eb">Languages by repositories</text>
    <text x="440" y="36" font-size="16" fill="#e5e7eb">Languages by activity</text>

    <!-- left legend -->
    <rect x="40" y="58" width="12" height="12" fill="#f97316" rx="2"/>
<text x="58" y="68" font-size="12" fill="#e5e7eb">Python — 24%</text>
<rect x="40" y="78" width="12" height="12" fill="#eab308" rx="2"/>
<text x="58" y="88" font-size="12" fill="#e5e7eb">C — 24%</text>
<rect x="40" y="98" width="12" height="12" fill="#22c55e" rx="2"/>
<text x="58" y="108" font-size="12" fill="#e5e7eb">C++ — 14%</text>
<rect x="40" y="118" width="12" height="12" fill="#fb7185" rx="2"/>
<text x="58" y="128" font-size="12" fill="#e5e7eb">Rust — 14%</text>
<rect x="40" y="138" width="12" height="12" fill="#a78bfa" rx="2"/>
<text x="58" y="148" font-size="12" fill="#e5e7eb">Assembly — 10%</text>
<rect x="40" y="158" width="12" height="12" fill="#6b7280" rx="2"/>
<text x="58" y="168" font-size="12" fill="#e5e7eb">Other — 14%</text>

    <!-- right legend -->
    <rect x="440" y="58" width="12" height="12" fill="#06b6d4" rx="2"/>
<text x="458" y="68" font-size="12" fill="#e5e7eb">C++ — 24%</text>
<rect x="440" y="78" width="12" height="12" fill="#6366f1" rx="2"/>
<text x="458" y="88" font-size="12" fill="#e5e7eb">Rust — 19%</text>
<rect x="440" y="98" width="12" height="12" fill="#00c2a8" rx="2"/>
<text x="458" y="108" font-size="12" fill="#e5e7eb">Python — 18%</text>
<rect x="440" y="118" width="12" height="12" fill="#ff6b6b" rx="2"/>
<text x="458" y="128" font-size="12" fill="#e5e7eb">Jupyter Notebook — 14%</text>
<rect x="440" y="138" width="12" height="12" fill="#ffd166" rx="2"/>
<text x="458" y="148" font-size="12" fill="#e5e7eb">C — 12%</text>
<rect x="440" y="158" width="12" height="12" fill="#6b7280" rx="2"/>
<text x="458" y="168" font-size="12" fill="#e5e7eb">Other — 11%</text>

    # left pie
    <path d="M280.0,72.0 A88,88 0 0 1 367.75393415194384,153.42375176439467 L335.84341264214606,155.81511475916022 A56,56 0 0 0 280.0,104.0 Z" fill="#f97316"/><path d="M367.75393415194384,153.42375176439467 A88,88 0 0 1 293.1157194235034,247.0171127078113 L288.3463669058658,215.3745262686072 A56,56 0 0 0 335.84341264214606,155.81511475916022 Z" fill="#eab308"/><path d="M293.1157194235034,247.0171127078113 A88,88 0 0 1 220.1447990761591,224.50856472102473 L241.91032668482853,201.05090482247027 A56,56 0 0 0 288.3463669058658,215.3745262686072 Z" fill="#22c55e"/><path d="M220.1447990761591,224.50856472102473 A88,88 0 0 1 192.24606584805616,153.4237517643947 L224.1565873578539,155.81511475916025 A56,56 0 0 0 241.91032668482853,201.05090482247027 Z" fill="#fb7185"/><path d="M192.24606584805616,153.4237517643947 A88,88 0 0 1 211.19882954281337,105.13289743643146 L236.21743698179034,125.08457109591093 A56,56 0 0 0 224.1565873578539,155.81511475916025 Z" fill="#a78bfa"/><path d="M211.19882954281337,105.13289743643146 A88,88 0 0 1 280.0,72.0 L280.0,104.0 A56,56 0 0 0 236.21743698179034,125.08457109591093 Z" fill="#6b7280"/>
    # right pie
    <path d="M680.0,72.0 A88,88 0 0 1 767.8532987143997,154.92083619101868 L735.9066446364361,156.76780484883005 A56,56 0 0 0 680.0,104.0 Z" fill="#06b6d4"/><path d="M767.8532987143997,154.92083619101868 A88,88 0 0 1 714.6129039259223,240.9070261585165 L702.0263934074051,211.4862893736014 A56,56 0 0 0 735.9066446364361,156.76780484883005 Z" fill="#6366f1"/><path d="M714.6129039259223,240.9070261585165 A88,88 0 0 1 619.967627487882,224.34371958914335 L641.7975811286523,200.9460033749094 A56,56 0 0 0 702.0263934074051,211.4862893736014 Z" fill="#00c2a8"/><path d="M619.967627487882,224.34371958914335 A88,88 0 0 1 592.211224018393,153.9064943053111 L624.1344152844318,156.12231455792525 A56,56 0 0 0 641.7975811286523,200.9460033749094 Z" fill="#ff6b6b"/><path d="M592.211224018393,153.9064943053111 A88,88 0 0 1 622.2327203892523,93.61520199342556 L643.2390038840697,117.7551285412708 A56,56 0 0 0 624.1344152844318,156.12231455792525 Z" fill="#ffd166"/><path d="M622.2327203892523,93.61520199342556 A88,88 0 0 1 680.0,72.0 L680.0,104.0 A56,56 0 0 0 643.2390038840697,117.7551285412708 Z" fill="#6b7280"/>

    </svg>