<svg width="600" height="420" viewBox="0 0 600 420"
      xmlns="http://www.w3.org/2000/svg">
      <rect width="100%" height="100%" fill="#0b0f1a"/>

      <text x="20" y="28" font-size="18" fill="#e5e7eb">
        Languages overview — Thopterek
      </text>

      <text x="90" y="60" font-size="14" fill="#9ca3af">
        By repositories
      </text>

      <text x="340" y="60" font-size="14" fill="#9ca3af">
        By activity
      </text>

      <path d="M170.0,75.0 A85,85 0 0 1 249.8738727668022,130.92828781731816 L218.86401628086725,142.21495254706522 A52,52 0 0 0 170.0,108.0 Z" fill="#f97316"/><path d="M249.8738727668022,130.92828781731816 A85,85 0 0 1 235.11377766511316,214.63694682335583 L209.83431104218687,193.42495570370005 A52,52 0 0 0 218.86401628086725,142.21495254706522 Z" fill="#22c55e"/><path d="M235.11377766511316,214.63694682335583 A85,85 0 0 1 170.0,245.0 L170.0,212.0 A52,52 0 0 0 209.83431104218687,193.42495570370005 Z" fill="#38bdf8"/><path d="M170.0,245.0 A85,85 0 0 1 115.36305317664414,225.11377766511313 L136.57504429629995,199.83431104218687 A52,52 0 0 0 170.0,212.0 Z" fill="#a78bfa"/><path d="M115.36305317664414,225.11377766511313 A85,85 0 0 1 90.12612723319779,189.07171218268186 L121.13598371913277,177.78504745293478 A52,52 0 0 0 136.57504429629995,199.83431104218687 Z" fill="#f43f5e"/><path d="M90.12612723319779,189.07171218268186 A85,85 0 0 1 169.99999999999997,75.0 L170.0,108.0 A52,52 0 0 0 121.13598371913277,177.78504745293478 Z" fill="#eab308"/>
      <path d="M430.0,75.0 A85,85 0 0 1 514.116707839971,147.77791089195682 L481.4596330315117,152.52295725155005 A52,52 0 0 0 430.0,108.0 Z" fill="#f97316"/><path d="M514.116707839971,147.77791089195682 A85,85 0 0 1 466.51676396754203,236.75627628630002 L452.3396673683786,206.95678078691296 A52,52 0 0 0 481.4596330315117,152.52295725155005 Z" fill="#22c55e"/><path d="M466.51676396754203,236.75627628630002 A85,85 0 0 1 367.9354327087378,218.0774438740927 L392.0310882453455,195.52973037003318 A52,52 0 0 0 452.3396673683786,206.95678078691296 Z" fill="#38bdf8"/><path d="M367.9354327087378,218.0774438740927 A85,85 0 0 1 345.22479923909884,153.8221900361935 L378.1375242403899,156.22063390449483 A52,52 0 0 0 392.0310882453455,195.52973037003318 Z" fill="#a78bfa"/><path d="M345.22479923909884,153.8221900361935 A85,85 0 0 1 357.35747108650395,115.86313340242772 L385.55986466468477,132.99862278736754 A52,52 0 0 0 378.1375242403899,156.22063390449483 Z" fill="#f43f5e"/><path d="M357.35747108650395,115.86313340242772 A85,85 0 0 1 430.0,75.0 L430.0,108.0 A52,52 0 0 0 385.55986466468477,132.99862278736754 Z" fill="#eab308"/>

      
        <rect x="40" y="290" width="12" height="12" fill="#f97316" rx="2"/>
        <text x="60" y="300" font-size="12" fill="#e5e7eb">
          Python
        </text>
        
        <rect x="40" y="308" width="12" height="12" fill="#38bdf8" rx="2"/>
        <text x="60" y="318" font-size="12" fill="#e5e7eb">
          Makefile
        </text>
        
        <rect x="40" y="326" width="12" height="12" fill="#38bdf8" rx="2"/>
        <text x="60" y="336" font-size="12" fill="#e5e7eb">
          C
        </text>
        
        <rect x="40" y="344" width="12" height="12" fill="#a78bfa" rx="2"/>
        <text x="60" y="354" font-size="12" fill="#e5e7eb">
          C++
        </text>
        
        <rect x="40" y="362" width="12" height="12" fill="#f43f5e" rx="2"/>
        <text x="60" y="372" font-size="12" fill="#e5e7eb">
          Shell
        </text>
        
        <rect x="40" y="380" width="12" height="12" fill="#eab308" rx="2"/>
        <text x="60" y="390" font-size="12" fill="#e5e7eb">
          Other
        </text>
        
        <rect x="40" y="398" width="12" height="12" fill="#22c55e" rx="2"/>
        <text x="60" y="408" font-size="12" fill="#e5e7eb">
          Rust
        </text>
        
    </svg>